# xmcd
#
# Track frame offsets:
#	150
#	15969
#	31277
#	50826
#	69515
#	87965
#	107755
#	124174
#	141408
#	158877
#	174966
#
# Disc length: 2563 seconds
#
# Revision: 1
# Processed by: cddbd v1.5PL3 Copyright (c) Steve Scherf et al.
# Submitted via: EasyCDDAExtractor 7.0.5.1
#
DISCID=8e0a010b
DTITLE=Deborah Coleman - Where Blues Begins
DYEAR=1998
DGENRE=Blues
TTITLE0=Love Moves Me
TTITLE1=Goodbye Misery
TTITLE2=Hain't Funny
TTITLE3=Travelin' South
TTITLE4=Dream
TTITLE5=Walk Your Walk
TTITLE6=They Raided The Joint
TTITLE7=Do You Want My Love
TTITLE8=On The Hunt
TTITLE9=Beside Myself
TTITLE10=Nobody to Blame
EXTD=
EXTT0=
EXTT1=
EXTT2=
EXTT3=
EXTT4=
EXTT5=
EXTT6=
EXTT7=
EXTT8=
EXTT9=
EXTT10=
PLAYORDER=
